<svg xmlns="http://www.w3.org/2000/svg" viewBox="0 0 1200 800" role="img" aria-labelledby="title desc">
<title id="title">TAP CLASS</title><desc id="desc">Editorial tap dance class visual</desc>
<defs>
<linearGradient id="bg" x1="0" y1="0" x2="1" y2="1"><stop stop-color="#15171b"/><stop offset="1" stop-color="#34383d"/></linearGradient>
<linearGradient id="floor" x1="0" y1="0" x2="0" y2="1"><stop stop-color="#8b5e3c"/><stop offset="1" stop-color="#3d281d"/></linearGradient>
</defs>
<rect width="1200" height="800" fill="url(#bg)"/>
<rect y="570" width="1200" height="230" fill="url(#floor)"/>
<path d="M0 620h1200M0 690h1200M0 760h1200" stroke="#d7b58b" stroke-opacity=".22" stroke-width="3"/>
<g fill="none" stroke="#f3eee7" stroke-linecap="round" stroke-linejoin="round">
<path d="M515 155c34 0 61 27 61 61s-27 61-61 61-61-27-61-61 27-61 61-61z" stroke-width="24"/>
<path d="M510 286l-34 155 82 92 50-152" stroke-width="38"/>
<path d="M486 320l-128 112M546 322l132 84" stroke-width="32"/>
<path d="M555 526l-83 125 126 28M603 514l89 112 113-14" stroke-width="42"/>
</g>
<g stroke="#ef3f3f" stroke-width="12" stroke-linecap="round" opacity=".9"><path d="M405 665l-62 19"/><path d="M783 603l69-12"/><path d="M387 625l-47-7"/></g>
<text x="70" y="110" fill="#fff" font-family="Arial,Helvetica,sans-serif" font-size="74" font-weight="800" letter-spacing="3">TAP CLASS</text>
<text x="73" y="158" fill="#ef3f3f" font-family="Arial,Helvetica,sans-serif" font-size="25" font-weight="700" letter-spacing="5">RHYTHM • SOUND • MOVEMENT</text>
</svg>