<svg xmlns="http://www.w3.org/2000/svg" viewBox="0 0 600 450" role="img" aria-labelledby="t d"><title id="t">呼吸とリラックスのイメージ</title><desc id="d">座位で落ち着いて呼吸する人物のイラスト</desc><defs><linearGradient id="bg" x1="0" y1="0" x2="1" y2="1"><stop stop-color="#f6f1e9"/><stop offset="1" stop-color="#e6d9c5"/></linearGradient><linearGradient id="top" x1="0" y1="0" x2="1" y2="1"><stop stop-color="#d8b58b"/><stop offset="1" stop-color="#b98d60"/></linearGradient></defs><rect width="600" height="450" rx="36" fill="url(#bg)"/><circle cx="108" cy="92" r="74" fill="#fff" opacity=".55"/><path d="M54 365h492" stroke="#c8b59d" stroke-width="4" stroke-linecap="round"/><ellipse cx="302" cy="360" rx="165" ry="24" fill="#aa8f6d" opacity=".18"/><path d="M299 324c-3-68-2-121 3-164" fill="none" stroke="url(#top)" stroke-width="66" stroke-linecap="round"/><circle cx="303" cy="132" r="35" fill="#efc2a6"/><path d="M276 118c11-26 46-36 67-12 9 10 12 23 10 36-13-9-25-13-37-13-13 0-24 4-37 10-5-7-5-14-3-21z" fill="#302c29"/><path d="M275 220c-40 20-72 47-94 82" fill="none" stroke="#efc2a6" stroke-width="20" stroke-linecap="round"/><path d="M328 220c40 21 71 47 93 82" fill="none" stroke="#efc2a6" stroke-width="20" stroke-linecap="round"/><circle cx="176" cy="309" r="11" fill="#efc2a6"/><circle cx="426" cy="309" r="11" fill="#efc2a6"/><path d="M290 330c-43 3-82 15-116 37" fill="none" stroke="#43464b" stroke-width="34" stroke-linecap="round"/><path d="M313 330c44 3 82 15 116 37" fill="none" stroke="#43464b" stroke-width="34" stroke-linecap="round"/><path d="M268 190c12 7 24 10 35 10 12 0 23-3 35-10" fill="none" stroke="#fff" stroke-width="3" opacity=".8"/><circle cx="474" cy="116" r="8" fill="#bd9064" opacity=".65"/><circle cx="503" cy="116" r="5" fill="#bd9064" opacity=".45"/></svg>